<svg viewBox="0 0 48 48" xmlns="http://www.w3.org/2000/svg" role="img" aria-labelledby="title">
  <title>Instagram logo</title>
  <defs>
    <linearGradient id="insta" x1="0%" y1="100%" x2="100%" y2="0%">
      <stop offset="0%" stop-color="#f58529"/>
      <stop offset="35%" stop-color="#dd2a7b"/>
      <stop offset="65%" stop-color="#8134af"/>
      <stop offset="100%" stop-color="#515bd4"/>
    </linearGradient>
  </defs>
  <rect width="48" height="48" rx="12" fill="url(#insta)"/>
  <path d="M24 17a7 7 0 1 0 0 14 7 7 0 0 0 0-14zm0 11a4 4 0 1 1 0-8 4 4 0 0 1 0 8zm9.5-11.5a1.7 1.7 0 1 1 0-3.4 1.7 1.7 0 0 1 0 3.4z" fill="#fff"/>
  <rect x="13" y="13" width="22" height="22" rx="6" ry="6" fill="none" stroke="#fff" stroke-width="3"/>
</svg>

