<svg viewBox="0 0 48 48" xmlns="http://www.w3.org/2000/svg" role="img" aria-labelledby="title">
  <title>TikTok logo</title>
  <rect width="48" height="48" rx="12" fill="#010101"/>
  <path d="M28.5 12.5a8.5 8.5 0 0 0 8.1 8.1v4.4a12.2 12.2 0 0 1-7.1-2.3v8.3a9.6 9.6 0 1 1-8.5-9.5v4.5a4.8 4.8 0 1 0 3.5 4.6V12.5h4z" fill="#25F4EE"/>
  <path d="M27.5 13.5a8.5 8.5 0 0 0 8.1 8.1v4.4a12.2 12.2 0 0 1-7.1-2.3v8.3a9.6 9.6 0 1 1-8.5-9.5v4.5a4.8 4.8 0 1 0 3.5 4.6V13.5h4z" fill="#FE2C55" opacity="0.6"/>
</svg>

